<svg width="20" height="24" viewBox="0 0 20 24" fill="none" xmlns="http://www.w3.org/2000/svg">
<path d="M16.521 12.4469C16.5452 10.6864 17.5531 9.02057 19.1521 8.09846C18.1434 6.7471 16.4538 5.89031 14.696 5.83872C12.8212 5.65412 11.0036 6.89108 10.0482 6.89108C9.0743 6.89108 7.60333 5.85704 6.01933 5.88761C3.95467 5.95019 2.02988 7.0513 1.02537 8.74452C-1.13391 12.2513 0.47672 17.4051 2.54514 20.2398C3.58001 21.6278 4.78948 23.1783 6.37204 23.1233C7.92068 23.0631 8.49907 22.197 10.3684 22.197C12.2204 22.197 12.763 23.1233 14.3777 23.0884C16.0395 23.0631 17.0865 21.6942 18.085 20.293C18.8286 19.3039 19.4007 18.2108 19.7803 17.0542C17.8274 16.2794 16.5233 14.4359 16.521 12.4469Z" fill="white"/>
<path d="M13.4711 3.97452C14.3772 2.95423 14.8236 1.64282 14.7155 0.318787C13.3312 0.455167 12.0526 1.07575 11.1343 2.0569C10.2363 3.01553 9.76899 4.30386 9.85733 5.57729C11.2421 5.59066 12.6034 4.9869 13.4711 3.97452Z" fill="white"/>
</svg>
