<svg width="1920" height="1159" viewBox="0 0 1920 1159" fill="none" xmlns="http://www.w3.org/2000/svg">
<path d="M-123.887 871.287C-106.438 940.194 -57.6156 997.727 15.814 1042.75C89.2464 1087.78 187.26 1120.28 303.017 1139.11C534.527 1176.79 836.909 1159.79 1155.28 1079.16C1473.65 998.543 1747.67 869.576 1933.35 726.259C2026.19 654.6 2096.92 579.368 2140.08 504.818C2183.23 430.271 2198.78 356.435 2181.33 287.528C2163.88 218.621 2115.06 161.087 2041.63 116.062C1968.2 71.0343 1870.18 38.5351 1754.43 19.6997C1522.92 -17.9709 1220.53 -0.971297 902.167 79.6501C583.799 160.272 309.771 289.238 124.092 432.555C31.2519 504.214 -39.4809 579.446 -82.6322 653.996C-125.782 728.544 -141.337 802.379 -123.887 871.287Z" stroke="#6D6DBB"/>
</svg>
