<svg width="24" height="26" viewBox="0 0 24 26" fill="none" xmlns="http://www.w3.org/2000/svg">
<path fill-rule="evenodd" clip-rule="evenodd" d="M0.187704 1.06523C0.0667818 1.32304 0 1.63869 0 2.0057V23.3519C0 23.7196 0.0668236 24.0352 0.187818 24.2928L12.5679 12.6783L0.187704 1.06523ZM0.906111 24.9901C1.36481 25.1734 1.9627 25.1146 2.61457 24.7678L17.1795 17.0041L13.2987 13.3638L0.906111 24.9901ZM18.1123 16.508L22.6802 14.0735C24.1176 13.3062 24.1176 12.0524 22.6802 11.286L18.11 8.85004L14.0295 12.6782L18.1123 16.508ZM17.178 8.35325L2.61457 0.590735C1.96278 0.2433 1.36495 0.184837 0.906281 0.368185L13.2987 11.9927L17.178 8.35325Z" fill="white"/>
</svg>
